HIERARCHY
ROOT Hips
{
	OFFSET 0.00 0.00 0.00
	CHANNELS 6 Xposition Yposition Zposition Xrotation Yrotation Zrotation
	JOINT RightUpLeg
	{
		OFFSET -3.69398 0.00000 0.00000
		CHANNELS 3 Xrotation Yrotation Zrotation
		JOINT RightLeg
		{
			OFFSET 0.00000 -15.79567 0.00000
			CHANNELS 3 Xrotation Yrotation Zrotation
			JOINT RightFoot
			{
				OFFSET 0.00000 -14.76699 0.00000
				CHANNELS 3 Xrotation Yrotation Zrotation
				JOINT RightToeBase
				{
					OFFSET 0.00000 -1.28446 4.79369
					CHANNELS 3 Xrotation Yrotation Zrotation
					End Site
					{
						OFFSET 0.00000 0.00000 2.95275
					}
				}
			}
		}
	}
	JOINT LeftUpLeg
	{
		OFFSET 3.69398 0.00000 0.00000
		CHANNELS 3 Xrotation Yrotation Zrotation
		JOINT LeftLeg
		{
			OFFSET 0.00000 -15.79567 0.00000
			CHANNELS 3 Xrotation Yrotation Zrotation
			JOINT LeftFoot
			{
				OFFSET 0.00000 -14.76699 0.00000
				CHANNELS 3 Xrotation Yrotation Zrotation
				JOINT LeftToeBase
				{
					OFFSET 0.00000 -1.28446 4.79369
					CHANNELS 3 Xrotation Yrotation Zrotation
					End Site
					{
						OFFSET 0.00000 0.00000 2.95275
					}
				}
			}
		}
	}
	JOINT Spine
	{
		OFFSET 0.00000 2.39296 0.00000
		CHANNELS 3 Xrotation Yrotation Zrotation
		JOINT RightShoulder
		{
			OFFSET 0.00000 13.20741 0.00000
			CHANNELS 3 Xrotation Yrotation Zrotation
			JOINT RightArm
			{
				OFFSET -8.14047 0.00000 0.00000
				CHANNELS 3 Xrotation Yrotation Zrotation
				JOINT RightForeArm
				{
					OFFSET -10.64984 0.00000 0.00000
					CHANNELS 3 Yrotation Zrotation Xrotation
					JOINT RightHand
					{
						OFFSET -8.30462 0.00000 0.00000
						CHANNELS 3 Xrotation Yrotation Zrotation
						End Site
						{
							OFFSET -3.93700 0.00000 0.00000
						}
						JOINT RightHandThumb1
						{
							OFFSET 0.00000 0.00000 0.00000
							CHANNELS 3 Xrotation Zrotation Yrotation
							End Site
							{
								OFFSET 0.00000 0.00000 3.93700
							}
						}
					}
				}
			}
		}
		JOINT LeftShoulder
		{
			OFFSET 0.00000 13.20741 0.00000
			CHANNELS 3 Xrotation Yrotation Zrotation
			JOINT LeftArm
			{
				OFFSET 8.14047 0.00000 0.00000
				CHANNELS 3 Xrotation Yrotation Zrotation
				JOINT LeftForeArm
				{
					OFFSET 10.64984 0.00000 0.00000
					CHANNELS 3 Yrotation Zrotation Xrotation
					JOINT LeftHand
					{
						OFFSET 8.30462 0.00000 0.00000
						CHANNELS 3 Xrotation Yrotation Zrotation
						End Site
						{
							OFFSET 3.93700 0.00000 0.00000
						}
						JOINT LeftHandThumb1
						{
							OFFSET 0.00000 0.00000 0.00000
							CHANNELS 3 Xrotation Zrotation Yrotation
							End Site
							{
								OFFSET 0.00000 0.00000 3.93700
							}
						}
					}
				}
			}
		}
		JOINT Head
		{
			OFFSET 0.00000 19.25010 0.00000
			CHANNELS 3 Xrotation Yrotation Zrotation
			End Site
			{
				OFFSET 0.00000 4.52755 0.00000
			}
		}
	}
}
MOTION
Frames: 9
Frame Time: 0.008333
 -0.1139 32.3256 -3.8275 38.7138 1.4984 -1.3255 -31.8566 -10.3405 1.1842 -1.7700 0.0000 -0.0000 -11.9322 -0.4303 4.1397 11.5889 0.0000 -0.0000 -33.9027 6.1716 0.9033 0.9437 -0.0000 0.0000 -12.6141 -4.2575 -0.8399 7.9442 0.0000 -0.0000 -43.8277 2.8956 -0.3648 -25.3997 0.8002 -45.1848 16.6947 20.2491 31.1890 -4.6790 0.0000 -4.2612 -1.3290 5.5527 13.4830 32.8623 0.0000 -24.3270 -5.8995 7.6644 42.0757 -16.7901 -10.9919 -35.3305 2.7710 0.0000 19.9514 0.3412 19.6691 -1.0135 33.1476 -0.0000 26.2537 11.1180 -3.6783 6.5846
 -0.1156 32.3259 -3.8286 38.7194 1.5005 -1.3263 -31.8596 -10.3487 1.1856 -1.7758 0.0000 0.0000 -11.9418 -0.4093 4.1262 11.6591 0.0000 -0.0000 -33.9083 6.1789 0.9041 0.9388 -0.0000 -0.0000 -12.6405 -4.2554 -0.9306 8.0789 -0.0000 0.0000 -43.8264 2.8884 -0.3705 -25.4018 0.8089 -45.1787 16.7315 20.2614 31.1734 -4.7171 0.0000 -4.3038 -1.3543 5.6434 13.5178 32.8623 0.0000 -24.3270 -5.8928 7.6853 42.0718 -16.8214 -10.9818 -35.3262 2.7710 0.0000 19.9636 0.3439 19.6875 -1.0208 33.1476 -0.0000 26.2537 11.1142 -3.7011 6.6122
 -0.1163 32.3260 -3.8298 38.7264 1.5088 -1.3240 -31.8656 -10.3441 1.1803 -1.7830 0.0000 -0.0000 -11.9484 -0.4179 4.1253 11.6526 -0.0000 0.0000 -33.9165 6.1700 0.8989 0.9361 0.0000 0.0000 -12.6276 -4.2538 -0.9338 8.0704 0.0000 0.0000 -43.8270 2.8896 -0.3795 -25.3881 0.7928 -45.1769 16.7348 20.2646 31.1580 -4.7279 0.0000 -4.3225 -1.3654 5.6769 13.5474 32.8623 0.0000 -24.3270 -5.8982 7.6869 42.0698 -16.8248 -10.9814 -35.3269 2.7706 0.0000 19.9546 0.3450 19.6639 -1.0253 33.1476 -0.0000 26.2537 11.1158 -3.7194 6.6325
 -0.1179 32.3261 -3.8314 38.7291 1.5126 -1.3279 -31.8720 -10.3564 1.1838 -1.7786 0.0000 0.0000 -11.9436 -0.4170 4.1369 11.6368 0.0000 -0.0000 -33.9206 6.1578 0.9020 0.9317 0.0000 -0.0000 -12.6268 -4.2423 -0.9250 8.0783 -0.0000 0.0000 -43.8217 2.8899 -0.3828 -25.3933 0.7943 -45.1802 16.7354 20.2550 31.1634 -4.7420 0.0000 -4.2925 -1.3677 5.7017 13.5132 32.8623 0.0000 -24.3270 -5.8949 7.6911 42.0649 -16.8542 -10.9597 -35.3245 2.7683 0.0000 19.9549 0.3503 19.6496 -1.0417 33.1476 -0.0000 26.2537 11.1050 -3.7343 6.6584
 -0.1197 32.3263 -3.8327 38.7332 1.5194 -1.3329 -31.8704 -10.3617 1.1888 -1.7917 0.0000 -0.0000 -11.9369 -0.4134 4.1111 11.6413 0.0000 -0.0000 -33.9307 6.1526 0.9074 0.9355 -0.0000 0.0000 -12.5983 -4.2578 -0.8322 7.9416 -0.0000 -0.0000 -43.8180 2.8855 -0.3894 -25.3895 0.7848 -45.1765 16.7188 20.2423 31.1636 -4.7473 0.0000 -4.2822 -1.3641 5.6781 13.5324 32.8623 0.0000 -24.3270 -5.9075 7.6870 42.0692 -16.8658 -10.9430 -35.3303 2.7705 0.0000 19.9599 0.3524 19.6644 -1.0473 33.1476 -0.0000 26.2537 11.1054 -3.7631 6.6846
 -0.1214 32.3263 -3.8343 38.7382 1.5230 -1.3379 -31.8734 -10.3708 1.1940 -1.7997 -0.0000 0.0000 -11.9300 -0.4217 4.1796 11.6541 -0.0000 -0.0000 -33.9382 6.1397 0.9098 0.9348 -0.0000 -0.0000 -12.5991 -4.2397 -0.8382 7.9638 0.0000 -0.0000 -43.8147 2.8868 -0.3914 -25.3932 0.7833 -45.1882 16.7071 20.2288 31.1835 -4.7582 0.0000 -4.2474 -1.3683 5.7130 13.4926 32.8623 0.0000 -24.3270 -5.8968 7.6989 42.0654 -16.8830 -10.9422 -35.3313 2.7738 0.0000 19.9416 0.3430 19.6708 -1.0189 33.1476 -0.0000 26.2537 11.0975 -3.7882 6.7041
 -0.1234 32.3264 -3.8358 38.7401 1.5205 -1.3396 -31.8810 -10.3685 1.1991 -1.7897 0.0000 0.0000 -11.9291 -0.4276 4.1692 11.6385 0.0000 -0.0000 -33.9434 6.1480 0.9158 0.9314 0.0000 -0.0000 -12.6126 -4.2402 -0.9444 8.0571 -0.0000 0.0000 -43.8088 2.8852 -0.3935 -25.3981 0.7854 -45.1827 16.7241 20.2316 31.1769 -4.7581 0.0000 -4.2558 -1.3635 5.6893 13.5014 32.8623 0.0000 -24.3270 -5.9017 7.7012 42.0705 -16.8944 -10.9228 -35.3402 2.7810 0.0000 19.9785 0.3363 19.6752 -0.9987 33.1476 -0.0000 26.2537 11.0960 -3.8060 6.7249
 -0.1248 32.3267 -3.8377 38.7416 1.5230 -1.3409 -31.8815 -10.3656 1.2031 -1.7988 0.0000 -0.0000 -11.9228 -0.4085 4.1285 11.6707 -0.0000 0.0000 -33.9543 6.1485 0.9193 0.9422 0.0000 0.0000 -12.6208 -4.2497 -0.9314 8.0687 -0.0000 -0.0000 -43.8000 2.8899 -0.3967 -25.4078 0.7883 -45.1903 16.7359 20.2194 31.1868 -4.7372 0.0000 -4.2000 -1.3486 5.6425 13.4651 32.8623 0.0000 -24.3270 -5.9057 7.6927 42.0668 -16.8899 -10.9064 -35.3406 2.7796 0.0000 20.0019 0.3319 19.6936 -0.9850 33.1476 -0.0000 26.2537 11.0842 -3.8212 6.7432
 -0.1263 32.3268 -3.8387 38.7426 1.5241 -1.3419 -31.8827 -10.3655 1.2061 -1.8002 0.0000 0.0000 -11.9253 -0.4249 4.1434 11.6867 0.0000 -0.0000 -33.9548 6.1408 0.9216 0.9352 -0.0000 0.0000 -12.6092 -4.2333 -0.9502 8.0535 -0.0000 0.0000 -43.7948 2.8942 -0.4007 -25.3949 0.7746 -45.1946 16.7172 20.2010 31.1934 -4.7223 0.0000 -4.1547 -1.3452 5.6236 13.4763 32.8623 0.0000 -24.3270 -5.9059 7.6793 42.0728 -16.8629 -10.8955 -35.3442 2.7837 0.0000 19.9863 0.3277 19.6680 -0.9735 33.1476 -0.0000 26.2537 11.0841 -3.8448 6.7615
